<svg width="146" height="100" viewBox="0 0 146 100" fill="none" xmlns="http://www.w3.org/2000/svg">
<g id="Frame 1">
<rect width="146" height="100" fill="white"/>
<g id="Triangulo">
<path id="BajoT" d="M24.3827 71L31.6039 58H17.1672L24.3827 71Z" fill="#EFECEC"/>
<path id="MedioT" d="M25.5 55.5H32.9999L39.647 43.5H9.08231L15.7727 55.5H25.5Z" fill="#EFECEC"/>
<path id="SuperiorT" d="M24.3827 41H41.0762L47.7654 29H1L7.69324 41H24.3827Z" fill="#EFECEC"/>
</g>
<g id="Texto">
<path id="Letra12" d="M135.397 71V64.994L136.174 67.052L129.706 56.3H133.318L138.274 64.553H136.195L141.172 56.3H144.511L138.043 67.052L138.799 64.994V71H135.397Z" fill="#EFECEC"/>
<path id="Letra11" d="M122.778 71.252C121.644 71.252 120.587 71.07 119.607 70.706C118.641 70.328 117.801 69.796 117.087 69.11C116.373 68.424 115.813 67.619 115.407 66.695C115.015 65.771 114.819 64.756 114.819 63.65C114.819 62.544 115.015 61.529 115.407 60.605C115.813 59.681 116.373 58.876 117.087 58.19C117.815 57.504 118.662 56.979 119.628 56.615C120.594 56.237 121.651 56.048 122.799 56.048C124.073 56.048 125.221 56.272 126.243 56.72C127.279 57.154 128.147 57.798 128.847 58.652L126.663 60.668C126.159 60.094 125.599 59.667 124.983 59.387C124.367 59.093 123.695 58.946 122.967 58.946C122.281 58.946 121.651 59.058 121.077 59.282C120.503 59.506 120.006 59.828 119.586 60.248C119.166 60.668 118.837 61.165 118.599 61.739C118.375 62.313 118.263 62.95 118.263 63.65C118.263 64.35 118.375 64.987 118.599 65.561C118.837 66.135 119.166 66.632 119.586 67.052C120.006 67.472 120.503 67.794 121.077 68.018C121.651 68.242 122.281 68.354 122.967 68.354C123.695 68.354 124.367 68.214 124.983 67.934C125.599 67.64 126.159 67.199 126.663 66.611L128.847 68.627C128.147 69.481 127.279 70.132 126.243 70.58C125.221 71.028 124.066 71.252 122.778 71.252Z" fill="#EFECEC"/>
<path id="Letra10" d="M98.743 71V56.3H101.557L110.23 66.884H108.865V56.3H112.225V71H109.432L100.738 60.416H102.103V71H98.743Z" fill="#EFECEC"/>
<path id="Letra9" d="M86.872 62.222H93.949V64.868H86.872V62.222ZM87.124 68.27H95.125V71H83.743V56.3H94.852V59.03H87.124V68.27Z" fill="#EFECEC"/>
<path id="Letra8" d="M73.841 71.252C72.679 71.252 71.608 71.07 70.628 70.706C69.662 70.328 68.815 69.796 68.087 69.11C67.373 68.424 66.813 67.619 66.407 66.695C66.015 65.771 65.819 64.756 65.819 63.65C65.819 62.544 66.015 61.529 66.407 60.605C66.813 59.681 67.38 58.876 68.108 58.19C68.836 57.504 69.69 56.979 70.67 56.615C71.65 56.237 72.728 56.048 73.904 56.048C75.206 56.048 76.375 56.265 77.411 56.699C78.461 57.133 79.343 57.763 80.057 58.589L77.873 60.605C77.341 60.045 76.76 59.632 76.13 59.366C75.5 59.086 74.814 58.946 74.072 58.946C73.358 58.946 72.707 59.058 72.119 59.282C71.531 59.506 71.02 59.828 70.586 60.248C70.166 60.668 69.837 61.165 69.599 61.739C69.375 62.313 69.263 62.95 69.263 63.65C69.263 64.336 69.375 64.966 69.599 65.54C69.837 66.114 70.166 66.618 70.586 67.052C71.02 67.472 71.524 67.794 72.098 68.018C72.686 68.242 73.33 68.354 74.03 68.354C74.702 68.354 75.353 68.249 75.983 68.039C76.627 67.815 77.25 67.444 77.852 66.926L79.784 69.383C78.986 69.985 78.055 70.447 76.991 70.769C75.941 71.091 74.891 71.252 73.841 71.252ZM76.676 68.942V63.419H79.784V69.383L76.676 68.942Z" fill="#EFECEC"/>
<path id="Letra7" d="M47.811 71L54.363 56.3H57.723L64.296 71H60.726L55.35 58.022H56.694L51.297 71H47.811ZM51.087 67.85L51.99 65.267H59.55L60.474 67.85H51.087Z" fill="#EFECEC"/>
<path id="Letra5" d="M113.743 45V30.3H116.557L122.815 40.674H121.324L127.477 30.3H130.27L130.312 45H127.12L127.099 35.193H127.687L122.773 43.446H121.24L116.221 35.193H116.935V45H113.743Z" fill="#EFECEC"/>
<path id="Letra4" d="M102.883 45.252C101.721 45.252 100.643 45.063 99.649 44.685C98.669 44.307 97.815 43.775 97.087 43.089C96.373 42.403 95.813 41.598 95.407 40.674C95.015 39.75 94.819 38.742 94.819 37.65C94.819 36.558 95.015 35.55 95.407 34.626C95.813 33.702 96.38 32.897 97.108 32.211C97.836 31.525 98.69 30.993 99.67 30.615C100.65 30.237 101.714 30.048 102.862 30.048C104.024 30.048 105.088 30.237 106.054 30.615C107.034 30.993 107.881 31.525 108.595 32.211C109.323 32.897 109.89 33.702 110.296 34.626C110.702 35.536 110.905 36.544 110.905 37.65C110.905 38.742 110.702 39.757 110.296 40.695C109.89 41.619 109.323 42.424 108.595 43.11C107.881 43.782 107.034 44.307 106.054 44.685C105.088 45.063 104.031 45.252 102.883 45.252ZM102.862 42.354C103.52 42.354 104.122 42.242 104.668 42.018C105.228 41.794 105.718 41.472 106.138 41.052C106.558 40.632 106.88 40.135 107.104 39.561C107.342 38.987 107.461 38.35 107.461 37.65C107.461 36.95 107.342 36.313 107.104 35.739C106.88 35.165 106.558 34.668 106.138 34.248C105.732 33.828 105.249 33.506 104.689 33.282C104.129 33.058 103.52 32.946 102.862 32.946C102.204 32.946 101.595 33.058 101.035 33.282C100.489 33.506 100.006 33.828 99.586 34.248C99.166 34.668 98.837 35.165 98.599 35.739C98.375 36.313 98.263 36.95 98.263 37.65C98.263 38.336 98.375 38.973 98.599 39.561C98.837 40.135 99.159 40.632 99.565 41.052C99.985 41.472 100.475 41.794 101.035 42.018C101.595 42.242 102.204 42.354 102.862 42.354Z" fill="#EFECEC"/>
<path id="Letra3" d="M86.778 45.252C85.644 45.252 84.587 45.07 83.607 44.706C82.641 44.328 81.801 43.796 81.087 43.11C80.373 42.424 79.813 41.619 79.407 40.695C79.015 39.771 78.819 38.756 78.819 37.65C78.819 36.544 79.015 35.529 79.407 34.605C79.813 33.681 80.373 32.876 81.087 32.19C81.815 31.504 82.662 30.979 83.628 30.615C84.594 30.237 85.651 30.048 86.799 30.048C88.073 30.048 89.221 30.272 90.243 30.72C91.279 31.154 92.147 31.798 92.847 32.652L90.663 34.668C90.159 34.094 89.599 33.667 88.983 33.387C88.367 33.093 87.695 32.946 86.967 32.946C86.281 32.946 85.651 33.058 85.077 33.282C84.503 33.506 84.006 33.828 83.586 34.248C83.166 34.668 82.837 35.165 82.599 35.739C82.375 36.313 82.263 36.95 82.263 37.65C82.263 38.35 82.375 38.987 82.599 39.561C82.837 40.135 83.166 40.632 83.586 41.052C84.006 41.472 84.503 41.794 85.077 42.018C85.651 42.242 86.281 42.354 86.967 42.354C87.695 42.354 88.367 42.214 88.983 41.934C89.599 41.64 90.159 41.199 90.663 40.611L92.847 42.627C92.147 43.481 91.279 44.132 90.243 44.58C89.221 45.028 88.066 45.252 86.778 45.252Z" fill="#EFECEC"/>
<path id="Letra2" d="M66.743 45V30.3H70.145V42.228H77.516V45H66.743Z" fill="#EFECEC"/>
<path id="Letra1" d="M47.811 45L54.363 30.3H57.723L64.296 45H60.726L55.35 32.022H56.694L51.297 45H47.811ZM51.087 41.85L51.99 39.267H59.55L60.474 41.85H51.087Z" fill="#EFECEC"/>
</g>
</g>
</svg>
